<?xml version="1.0" encoding="UTF-8" standalone="no"?>
<!-- Created with Inkscape (http://www.inkscape.org/) -->

<svg
   xmlns:dc="http://purl.org/dc/elements/1.1/"
   xmlns:cc="http://creativecommons.org/ns#"
   xmlns:rdf="http://www.w3.org/1999/02/22-rdf-syntax-ns#"
   xmlns:svg="http://www.w3.org/2000/svg"
   xmlns="http://www.w3.org/2000/svg"
   xmlns:sodipodi="http://sodipodi.sourceforge.net/DTD/sodipodi-0.dtd"
   xmlns:inkscape="http://www.inkscape.org/namespaces/inkscape"
   width="200"
   height="100"
   viewBox="0 0 200 100"
   id="svg4185"
   version="1.1"
   inkscape:version="0.91 r13725"
   sodipodi:docname="hd720p.svg">
  <defs
     id="defs4187" />
  <sodipodi:namedview
     id="base"
     pagecolor="#ffffff"
     bordercolor="#000000"
     borderopacity="0"
     inkscape:pageopacity="0.0"
     inkscape:pageshadow="2"
     inkscape:zoom="4.1873525"
     inkscape:cx="98.892273"
     inkscape:cy="58.137058"
     inkscape:document-units="px"
     inkscape:current-layer="layer4"
     showgrid="false"
     units="px"
     inkscape:window-width="1920"
     inkscape:window-height="1017"
     inkscape:window-x="-8"
     inkscape:window-y="-8"
     inkscape:window-maximized="1"
     showguides="false" />
  <metadata
     id="metadata4190">
    <rdf:RDF>
      <cc:Work
         rdf:about="">
        <dc:format>image/svg+xml</dc:format>
        <dc:type
           rdf:resource="http://purl.org/dc/dcmitype/StillImage" />
        <dc:title></dc:title>
      </cc:Work>
    </rdf:RDF>
  </metadata>
  <g
     inkscape:groupmode="layer"
     id="layer4"
     inkscape:label="Layer 1">
    <path
       style="opacity:1;fill:#{sdcol(clrIcon)};fill-opacity:{sdopac(clrIcon)};stroke:none;stroke-width:7.46099997;stroke-linejoin:miter;stroke-miterlimit:4;stroke-dasharray:none;stroke-opacity:1"
       d="M 0 0 L 0 100 L 200 100 L 200 0 L 0 0 z M 3 3 L 83 3 L 83 97 L 3 97 L 3 3 z M 128.28125 34.529297 C 129.57031 34.529297 130.7627 34.720703 131.86133 35.101562 C 132.95996 35.467773 133.91309 36.008789 134.71875 36.726562 C 135.52441 37.444336 136.15332 38.332031 136.60742 39.386719 C 137.07617 40.441406 137.31055 41.649414 137.31055 43.011719 C 137.31055 44.256836 137.16406 45.383789 136.87109 46.394531 C 136.59277 47.405273 136.16211 48.358398 135.57617 49.251953 C 135.00488 50.145508 134.2793 51.001953 133.40039 51.822266 C 132.52148 52.642578 131.48926 53.478516 130.30273 54.328125 C 128.82324 55.382812 127.59961 56.282227 126.63281 57.029297 C 125.68066 57.776367 124.91895 58.479492 124.34766 59.138672 C 123.79102 59.783203 123.39453 60.436523 123.16016 61.095703 C 122.94043 61.740234 122.83203 62.486328 122.83203 63.335938 L 138.51953 63.335938 L 138.51953 66.566406 L 119.07422 66.566406 L 119.07422 65.005859 C 119.07422 63.658203 119.2207 62.472656 119.51367 61.447266 C 119.80664 60.421875 120.28906 59.446289 120.96289 58.523438 C 121.63672 57.600586 122.51562 56.678711 123.59961 55.755859 C 124.69824 54.833008 126.03906 53.791992 127.62109 52.634766 C 128.76367 51.814453 129.7168 51.032227 130.47852 50.285156 C 131.25488 49.538086 131.87695 48.790039 132.3457 48.042969 C 132.81445 47.295898 133.14355 46.541016 133.33398 45.779297 C 133.53906 45.00293 133.64258 44.182617 133.64258 43.318359 C 133.64258 42.351562 133.4873 41.510742 133.17969 40.792969 C 132.88672 40.075195 132.47656 39.480469 131.94922 39.011719 C 131.43652 38.52832 130.83008 38.169922 130.12695 37.935547 C 129.42383 37.701172 128.66211 37.583984 127.8418 37.583984 C 127.13867 37.583984 126.44922 37.678711 125.77539 37.869141 C 125.10156 38.05957 124.44336 38.323242 123.79883 38.660156 C 123.16895 38.99707 122.55371 39.400391 121.95312 39.869141 C 121.36719 40.337891 120.81738 40.858398 120.30469 41.429688 L 120.30469 37.5625 C 121.31543 36.581055 122.44238 35.833008 123.6875 35.320312 C 124.94727 34.792969 126.47949 34.529297 128.28125 34.529297 z M 153.43945 34.529297 C 160.0459 34.529297 163.34961 39.913086 163.34961 50.679688 C 163.34961 53.316406 163.10645 55.65332 162.62305 57.689453 C 162.1543 59.725586 161.4668 61.447266 160.55859 62.853516 C 159.66504 64.245117 158.55859 65.306641 157.24023 66.039062 C 155.93652 66.756836 154.44922 67.115234 152.7793 67.115234 C 151.19727 67.115234 149.78418 66.770508 148.53906 66.082031 C 147.30859 65.378906 146.26953 64.362305 145.41992 63.029297 C 144.57031 61.696289 143.92578 60.0625 143.48633 58.128906 C 143.04688 56.180664 142.82617 53.954102 142.82617 51.449219 C 142.82617 48.695312 143.05371 46.263672 143.50781 44.154297 C 143.97656 42.044922 144.65723 40.280273 145.55078 38.859375 C 146.44434 37.423828 147.55078 36.34668 148.86914 35.628906 C 150.20215 34.896484 151.72559 34.529297 153.43945 34.529297 z M 94.574219 35.056641 L 114.61328 35.056641 L 114.61328 37.144531 C 114.12988 37.979492 113.54395 39.020508 112.85547 40.265625 C 112.18164 41.510742 111.46484 42.908203 110.70312 44.460938 C 109.94141 46.013672 109.16406 47.683594 108.37305 49.470703 C 107.58203 51.257812 106.84277 53.103516 106.1543 55.007812 C 105.46582 56.912109 104.85742 58.845703 104.33008 60.808594 C 103.81738 62.756836 103.44336 64.676758 103.20898 66.566406 L 99.341797 66.566406 C 99.605469 64.691406 100.00879 62.780273 100.55078 60.832031 C 101.10742 58.869141 101.72949 56.949219 102.41797 55.074219 C 103.12109 53.18457 103.8623 51.368164 104.63867 49.625 C 105.41504 47.881836 106.16797 46.277344 106.90039 44.8125 C 107.63281 43.347656 108.2998 42.058594 108.90039 40.945312 C 109.51562 39.817383 110.00684 38.938477 110.37305 38.308594 L 94.574219 38.308594 L 94.574219 35.056641 z M 153.26367 37.583984 C 148.7666 37.583984 146.51758 42.147461 146.51758 51.273438 C 146.51758 59.78418 148.72168 64.039062 153.13086 64.039062 C 157.48145 64.039062 159.6582 59.703125 159.6582 51.03125 C 159.6582 42.066406 157.52637 37.583984 153.26367 37.583984 z M 180.3125 43.539062 C 183.21289 43.539062 185.47559 44.548828 187.10156 46.570312 C 188.72754 48.577148 189.54102 51.272461 189.54102 54.65625 C 189.54102 58.420898 188.62402 61.438477 186.79297 63.708984 C 184.96191 65.964844 182.45801 67.09375 179.2793 67.09375 C 176.36426 67.09375 174.11523 65.833984 172.5332 63.314453 L 172.44531 63.314453 L 172.44531 76.916016 L 168.8418 76.916016 L 168.8418 44.066406 L 172.44531 44.066406 L 172.44531 48.021484 L 172.5332 48.021484 C 174.30566 45.033203 176.89941 43.539062 180.3125 43.539062 z M 179.41016 46.570312 C 177.31543 46.570312 175.63184 47.302734 174.35742 48.767578 C 173.08301 50.217773 172.44531 52.042969 172.44531 54.240234 L 172.44531 57.380859 C 172.44531 59.241211 173.04688 60.823242 174.24805 62.126953 C 175.46387 63.416016 177.00098 64.060547 178.86133 64.060547 C 181.04395 64.060547 182.75 63.226562 183.98047 61.556641 C 185.22559 59.886719 185.84961 57.56543 185.84961 54.591797 C 185.84961 52.086914 185.27051 50.124023 184.11328 48.703125 C 182.95605 47.282227 181.3877 46.570312 179.41016 46.570312 z "
       id="rect4211" />
  </g>
  <g
     inkscape:groupmode="layer"
     id="layer5"
     inkscape:label="Layer 2">
    <g
       style="font-style:normal;font-weight:normal;font-size:40px;line-height:125%;font-family:sans-serif;letter-spacing:0px;word-spacing:0px;fill:#{sdcol(clrIcon)};fill-opacity:{sdopac(clrIcon)};stroke:none;stroke-width:1px;stroke-linecap:butt;stroke-linejoin:miter;stroke-opacity:1"
       id="text4217"
       transform="matrix(0.89085816,0,0,0.89085816,5.0668384,6.3056439)">
      <path
         d="m 35.553985,68.715317 -7.93457,0 2.978515,-14.160156 -14.379882,0 -3.00293,14.160156 -7.9589844,0 7.4462894,-35.009766 7.958984,0 -3.00293,13.964844 14.404297,0 3.00293,-13.964844 7.93457,0 -7.446289,35.009766 z"
         style="font-style:italic;font-variant:normal;font-weight:bold;font-stretch:normal;font-size:50px;font-family:'Segoe UI';-inkscape-font-specification:'Segoe UI Bold Italic'"
         id="path4222"
         inkscape:connector-curvature="0" />
      <path
         d="m 78.840118,47.865707 q 0,2.758789 -0.561524,5.395508 -0.561523,2.612305 -1.708984,4.931641 -1.123047,2.319336 -2.856445,4.248047 -1.733399,1.928711 -4.101563,3.320312 -2.34375,1.391602 -5.346679,2.172852 -3.00293,0.78125 -6.665039,0.78125 l -14.160157,0 7.446289,-35.009766 12.304688,0 q 3.857422,0 6.762695,1.049805 2.929688,1.049805 4.907227,2.929687 1.977539,1.855469 2.978515,4.467774 1.000977,2.58789 1.000977,5.71289 z m -8.349609,0.610352 q 0,-1.953125 -0.561524,-3.491211 -0.537109,-1.5625 -1.68457,-2.636719 -1.123047,-1.074218 -2.856446,-1.635742 -1.733398,-0.585937 -4.101562,-0.585937 l -3.833008,0 -4.711914,22.192382 4.80957,0 q 2.978516,0 5.371094,-0.976562 2.392578,-1.000977 4.077149,-2.807617 1.68457,-1.831055 2.58789,-4.370117 0.903321,-2.563477 0.903321,-5.688477 z"
         style="font-style:italic;font-variant:normal;font-weight:bold;font-stretch:normal;font-size:50px;font-family:'Segoe UI';-inkscape-font-specification:'Segoe UI Bold Italic'"
         id="path4224"
         inkscape:connector-curvature="0" />
    </g>
  </g>
</svg>
