<?xml version="1.0" encoding="UTF-8" standalone="no"?>
<!-- Created with Inkscape (http://www.inkscape.org/) -->

<svg
   xmlns:dc="http://purl.org/dc/elements/1.1/"
   xmlns:cc="http://creativecommons.org/ns#"
   xmlns:rdf="http://www.w3.org/1999/02/22-rdf-syntax-ns#"
   xmlns:svg="http://www.w3.org/2000/svg"
   xmlns="http://www.w3.org/2000/svg"
   xmlns:sodipodi="http://sodipodi.sourceforge.net/DTD/sodipodi-0.dtd"
   xmlns:inkscape="http://www.inkscape.org/namespaces/inkscape"
   width="130"
   height="100"
   viewBox="0 0 130 100"
   id="svg4793"
   version="1.1"
   inkscape:version="0.91 r13725"
   sodipodi:docname="text_on.svg">
  <defs
     id="defs4795">
    <filter
       inkscape:collect="always"
       style="color-interpolation-filters:sRGB"
       id="filter4140"
       x="-0.021230769"
       width="1.0424615"
       y="-0.0276"
       height="1.0552">
      <feGaussianBlur
         inkscape:collect="always"
         stdDeviation="1.15"
         id="feGaussianBlur4142" />
    </filter>
  </defs>
  <sodipodi:namedview
     id="base"
     pagecolor="#ffffff"
     bordercolor="#666666"
     borderopacity="1.0"
     inkscape:pageopacity="0.0"
     inkscape:pageshadow="2"
     inkscape:zoom="5.6238029"
     inkscape:cx="35.596421"
     inkscape:cy="64.387674"
     inkscape:document-units="px"
     inkscape:current-layer="layer1"
     showgrid="false"
     units="px"
     inkscape:window-width="1920"
     inkscape:window-height="1017"
     inkscape:window-x="-8"
     inkscape:window-y="-8"
     inkscape:window-maximized="1" />
  <metadata
     id="metadata4798">
    <rdf:RDF>
      <cc:Work
         rdf:about="">
        <dc:format>image/svg+xml</dc:format>
        <dc:type
           rdf:resource="http://purl.org/dc/dcmitype/StillImage" />
        <dc:title />
      </cc:Work>
    </rdf:RDF>
  </metadata>
  <g
     inkscape:label="Ebene 1"
     inkscape:groupmode="layer"
     id="layer1"
     transform="translate(0,-952.36216)">
    <path
       style="fill:#{sdcol(clrIconInactive)};fill-opacity:{sdopac(clrIconInactive)};stroke:none;stroke-width:2;stroke-linejoin:miter;stroke-miterlimit:4;stroke-dasharray:none;filter:url(#filter4140)"
       d="M 0,0 0,100 130,100 130,0 0,0 Z M 11.599609,15 118.40039,15 C 119.28698,15 120,15.633796 120,16.421875 l 0,7.15625 C 120,24.366204 119.28698,25 118.40039,25 L 11.599609,25 C 10.713021,25 10,24.366204 10,23.578125 l 0,-7.15625 C 10,15.633796 10.713021,15 11.599609,15 Z m 0,20 106.800781,0 C 119.28698,35 120,35.633796 120,36.421875 l 0,7.15625 C 120,44.366204 119.28698,45 118.40039,45 L 11.599609,45 C 10.713021,45 10,44.366204 10,43.578125 l 0,-7.15625 C 10,35.633796 10.713021,35 11.599609,35 Z m 0,20 106.800781,0 C 119.28698,55 120,55.633796 120,56.421875 l 0,7.15625 C 120,64.366204 119.28698,65 118.40039,65 L 11.599609,65 C 10.713021,65 10,64.366204 10,63.578125 l 0,-7.15625 C 10,55.633796 10.713021,55 11.599609,55 Z m 0,20 106.800781,0 C 119.28698,75 120,75.633796 120,76.421875 l 0,7.15625 C 120,84.366204 119.28698,85 118.40039,85 L 11.599609,85 C 10.713021,85 10,84.366204 10,83.578125 l 0,-7.15625 C 10,75.633796 10.713021,75 11.599609,75 Z"
       transform="matrix(0.95951617,0,0,0.947371,2.6482645,955.01032)"
       id="rect5361"
       inkscape:connector-curvature="0" />
  </g>
</svg>
