<?xml version="1.0" encoding="UTF-8" standalone="no"?>
<!-- Created with Inkscape (http://www.inkscape.org/) -->

<svg
   xmlns:dc="http://purl.org/dc/elements/1.1/"
   xmlns:cc="http://creativecommons.org/ns#"
   xmlns:rdf="http://www.w3.org/1999/02/22-rdf-syntax-ns#"
   xmlns:svg="http://www.w3.org/2000/svg"
   xmlns="http://www.w3.org/2000/svg"
   xmlns:sodipodi="http://sodipodi.sourceforge.net/DTD/sodipodi-0.dtd"
   xmlns:inkscape="http://www.inkscape.org/namespaces/inkscape"
   width="200"
   height="200"
   viewBox="0 0 200 200"
   id="svg4192"
   version="1.1"
   inkscape:version="0.91 r13725"
   sodipodi:docname="tvg_button_info.svg">
  <defs
     id="defs4194" />
  <sodipodi:namedview
     id="base"
     pagecolor="#ffffff"
     bordercolor="#666666"
     borderopacity="1.0"
     inkscape:pageopacity="0.0"
     inkscape:pageshadow="2"
     inkscape:zoom="2.8"
     inkscape:cx="108.57143"
     inkscape:cy="85.714286"
     inkscape:document-units="px"
     inkscape:current-layer="layer1"
     showgrid="false"
     units="px"
     inkscape:window-width="1920"
     inkscape:window-height="1017"
     inkscape:window-x="-8"
     inkscape:window-y="-8"
     inkscape:window-maximized="1" />
  <metadata
     id="metadata4197">
    <rdf:RDF>
      <cc:Work
         rdf:about="">
        <dc:format>image/svg+xml</dc:format>
        <dc:type
           rdf:resource="http://purl.org/dc/dcmitype/StillImage" />
        <dc:title></dc:title>
      </cc:Work>
    </rdf:RDF>
  </metadata>
  <g
     inkscape:label="Ebene 1"
     inkscape:groupmode="layer"
     id="layer1"
     transform="translate(0,-852.36216)">
    <path
       inkscape:connector-curvature="0"
       style="display:inline;opacity:1;fill:#{sdcol(clrTVGIconActive)};fill-opacity:{sdopac(clrTVGIconActive)};stroke:none;stroke-width:13.36699963;stroke-linecap:round;stroke-linejoin:miter;stroke-miterlimit:4;stroke-dasharray:none;stroke-opacity:1"
       d="M 27.271484,852.36214 C 12.163412,852.36214 0,864.52555 0,879.63362 l 0,145.45708 c 0,15.1081 12.163412,27.2715 27.271484,27.2715 l 145.457036,0 c 15.10807,0 27.27148,-12.1634 27.27148,-27.2715 l 0,-145.45708 c 0,-15.10807 -12.16341,-27.27148 -27.27148,-27.27148 l -145.457036,0 z m 73.871096,38.17188 a 18.135902,15.694531 0 0 1 18.13672,15.69531 18.135902,15.694531 0 0 1 -18.13672,15.69333 18.135902,15.694531 0 0 1 -18.136717,-15.69333 18.135902,15.694531 0 0 1 18.136717,-15.69531 z m -16.392577,37.31834 32.785157,0 0,79.51954 -32.785157,0 0,-79.51954 z"
       id="rect4172" />
  </g>
</svg>
