<?xml version="1.0" encoding="UTF-8" standalone="no"?>
<!-- Created with Inkscape (http://www.inkscape.org/) -->

<svg
   xmlns:dc="http://purl.org/dc/elements/1.1/"
   xmlns:cc="http://creativecommons.org/ns#"
   xmlns:rdf="http://www.w3.org/1999/02/22-rdf-syntax-ns#"
   xmlns:svg="http://www.w3.org/2000/svg"
   xmlns="http://www.w3.org/2000/svg"
   xmlns:sodipodi="http://sodipodi.sourceforge.net/DTD/sodipodi-0.dtd"
   xmlns:inkscape="http://www.inkscape.org/namespaces/inkscape"
   width="200"
   height="200"
   viewBox="0 0 200 200"
   id="svg5331"
   version="1.1"
   inkscape:version="0.91 r13725"
   sodipodi:docname="tvg_button_edit.svg">
  <defs
     id="defs5333" />
  <sodipodi:namedview
     id="base"
     pagecolor="#ffffff"
     bordercolor="#666666"
     borderopacity="1.0"
     inkscape:pageopacity="0.0"
     inkscape:pageshadow="2"
     inkscape:zoom="1.8208589"
     inkscape:cx="111.42857"
     inkscape:cy="127.14286"
     inkscape:document-units="px"
     inkscape:current-layer="layer1"
     showgrid="false"
     inkscape:window-width="1920"
     inkscape:window-height="1017"
     inkscape:window-x="-8"
     inkscape:window-y="-8"
     inkscape:window-maximized="1"
     units="px" />
  <metadata
     id="metadata5336">
    <rdf:RDF>
      <cc:Work
         rdf:about="">
        <dc:format>image/svg+xml</dc:format>
        <dc:type
           rdf:resource="http://purl.org/dc/dcmitype/StillImage" />
        <dc:title></dc:title>
      </cc:Work>
    </rdf:RDF>
  </metadata>
  <g
     inkscape:label="Ebene 1"
     inkscape:groupmode="layer"
     id="layer1"
     transform="translate(0,-852.36216)">
    <path
       inkscape:connector-curvature="0"
       style="display:inline;opacity:1;fill:#{sdcol(clrTVGIconActive)};fill-opacity:{sdopac(clrTVGIconActive)};stroke:none;stroke-width:13.36699963;stroke-linecap:round;stroke-linejoin:miter;stroke-miterlimit:4;stroke-dasharray:none;stroke-opacity:1"
       d="M 27.27149,852.36212 C 12.16341,852.36212 0,864.52553 0,879.6336 l 0,145.4571 c 0,15.1081 12.16341,27.2715 27.27149,27.2715 l 145.45703,0 c 15.10807,0 27.27148,-12.1634 27.27148,-27.2715 l 0,-145.4571 c 0,-15.10807 -12.16341,-27.27148 -27.27148,-27.27148 l -145.45703,0 z m 103.91992,40.62109 28.2832,28.28321 -5.48047,5.48047 -28.2832,-28.28321 5.48047,-5.48047 z m -9.125,9.12305 28.28515,28.28516 -61.58593,61.58593 -28.28516,-28.28515 61.58594,-61.58594 z m -65.6875,65.6875 28.28515,28.28516 -44.47656,16.19148 16.19141,-44.47664 z"
       id="rect5314" />
  </g>
</svg>
