<?xml version="1.0" encoding="UTF-8" standalone="no"?>
<!-- Generator: Adobe Illustrator 15.1.0, SVG Export Plug-In . SVG Version: 6.00 Build 0)  -->

<svg
   xmlns:dc="http://purl.org/dc/elements/1.1/"
   xmlns:cc="http://creativecommons.org/ns#"
   xmlns:rdf="http://www.w3.org/1999/02/22-rdf-syntax-ns#"
   xmlns:svg="http://www.w3.org/2000/svg"
   xmlns="http://www.w3.org/2000/svg"
   xmlns:sodipodi="http://sodipodi.sourceforge.net/DTD/sodipodi-0.dtd"
   xmlns:inkscape="http://www.inkscape.org/namespaces/inkscape"
   version="1.1"
   id="Layer_1"
   x="0px"
   y="0px"
   width="512px"
   height="512px"
   viewBox="0 0 512 512"
   enable-background="new 0 0 512 512"
   xml:space="preserve"
   inkscape:version="0.48.5 r10040"
   sodipodi:docname="windbearing_ENE.svg"><metadata
   id="metadata80"><rdf:RDF><cc:Work
       rdf:about=""><dc:format>image/svg+xml</dc:format><dc:type
         rdf:resource="http://purl.org/dc/dcmitype/StillImage" /><dc:title></dc:title></cc:Work></rdf:RDF></metadata><defs
   id="defs78" /><sodipodi:namedview
   pagecolor="#ffffff"
   bordercolor="#666666"
   borderopacity="1"
   objecttolerance="10"
   gridtolerance="10"
   guidetolerance="10"
   inkscape:pageopacity="0"
   inkscape:pageshadow="2"
   inkscape:window-width="1366"
   inkscape:window-height="746"
   id="namedview76"
   showgrid="false"
   inkscape:zoom="0.86"
   inkscape:cx="256"
   inkscape:cy="204.5917"
   inkscape:window-x="-8"
   inkscape:window-y="-8"
   inkscape:window-maximized="1"
   inkscape:current-layer="g3083"><inkscape:grid
     type="xygrid"
     id="grid2987" /></sodipodi:namedview>


<g
   id="g3083"
   transform="matrix(0.70710678,-0.70710678,0.70710678,0.70710678,-106.03867,256)"><g
     style="fill:#b3b3b3"
     id="g70"
     transform="matrix(0,1,-1,0,511.99212,0)">
	<g
   style="fill:#b3b3b3"
   id="g72">
		<path
   style="fill:#b3b3b3"
   id="path74"
   d="M 256,0 C 114.604,0 0,114.604 0,256 0,397.375 114.604,512 256,512 397.375,512 512,397.375 512,256 512,114.604 397.375,0 256,0 z m 0,448 C 150.125,448 64,361.875 64,256 64,150.125 150.125,64 256,64 c 105.875,0 192,86.125 192,192 0,105.875 -86.125,192 -192,192 z m -96,-96 128,-64 64,-128 -128,64 -64,128 z"
   inkscape:connector-curvature="0" />
	</g>
</g><path
     inkscape:connector-curvature="0"
     id="path3079"
     d="m 240.63629,272.51174 15.57354,-15.56818 46.23239,46.37656 c 25.42781,25.50711 46.16842,46.44184 46.09024,46.52162 -0.1449,0.14789 -123.46971,-61.42077 -123.46971,-61.641 0,-0.0664 7.00809,-7.1265 15.57354,-15.689 z"
     style="fill:#ff0000;fill-opacity:1;fill-rule:nonzero;stroke:#d40000;stroke-width:0.47393364" /><path
     inkscape:connector-curvature="0"
     id="path3081"
     d="m 272.16499,240.54349 15.97254,-15.97167 31.71896,63.43827 c 17.44542,34.89105 31.68086,63.47636 31.63431,63.52291 -0.0465,0.0465 -0.74268,-0.24096 -1.54695,-0.63893 -1.17887,-0.58332 -1.41984,-0.77474 -1.2432,-0.98758 0.17487,-0.21071 -0.85004,-1.34314 -5.07571,-5.60821 -15.87909,-16.02711 -36.43197,-36.68091 -60.45621,-60.75306 l -26.97627,-27.03006 15.97253,-15.97167 z"
     style="fill:#d40000;fill-opacity:1;fill-rule:nonzero;stroke:#d40000;stroke-width:0.19305019" /></g></svg>