<?xml version="1.0" encoding="UTF-8" standalone="no"?>
<!-- Generator: Adobe Illustrator 15.1.0, SVG Export Plug-In . SVG Version: 6.00 Build 0)  -->

<svg
   xmlns:dc="http://purl.org/dc/elements/1.1/"
   xmlns:cc="http://creativecommons.org/ns#"
   xmlns:rdf="http://www.w3.org/1999/02/22-rdf-syntax-ns#"
   xmlns:svg="http://www.w3.org/2000/svg"
   xmlns="http://www.w3.org/2000/svg"
   xmlns:sodipodi="http://sodipodi.sourceforge.net/DTD/sodipodi-0.dtd"
   xmlns:inkscape="http://www.inkscape.org/namespaces/inkscape"
   version="1.1"
   id="Layer_1"
   x="0px"
   y="0px"
   width="512px"
   height="512px"
   viewBox="0 0 512 512"
   enable-background="new 0 0 512 512"
   xml:space="preserve"
   inkscape:version="0.48.5 r10040"
   sodipodi:docname="windbearing_S.svg"><metadata
   id="metadata80"><rdf:RDF><cc:Work
       rdf:about=""><dc:format>image/svg+xml</dc:format><dc:type
         rdf:resource="http://purl.org/dc/dcmitype/StillImage" /><dc:title></dc:title></cc:Work></rdf:RDF></metadata><defs
   id="defs78" /><sodipodi:namedview
   pagecolor="#ffffff"
   bordercolor="#666666"
   borderopacity="1"
   objecttolerance="10"
   gridtolerance="10"
   guidetolerance="10"
   inkscape:pageopacity="0"
   inkscape:pageshadow="2"
   inkscape:window-width="1366"
   inkscape:window-height="746"
   id="namedview76"
   showgrid="false"
   inkscape:zoom="0.86"
   inkscape:cx="256"
   inkscape:cy="194.81369"
   inkscape:window-x="-8"
   inkscape:window-y="-8"
   inkscape:window-maximized="1"
   inkscape:current-layer="g3083"><inkscape:grid
     type="xygrid"
     id="grid2987" /></sodipodi:namedview>


<g
   id="g3083"
   transform="matrix(0.70710678,-0.70710678,0.70710678,0.70710678,-106.03867,256)"><g
     style="fill:#b3b3b3"
     id="g70"
     transform="matrix(-0.92395915,-0.38249115,0.38249115,-0.92395915,394.60974,590.4422)">
	<g
   style="fill:#b3b3b3"
   id="g72">
		<path
   style="fill:#b3b3b3"
   id="path74"
   d="M 256,0 C 114.604,0 0,114.604 0,256 0,397.375 114.604,512 256,512 397.375,512 512,397.375 512,256 512,114.604 397.375,0 256,0 z m 0,448 C 150.125,448 64,361.875 64,256 64,150.125 150.125,64 256,64 c 105.875,0 192,86.125 192,192 0,105.875 -86.125,192 -192,192 z m -96,-96 128,-64 64,-128 -128,64 -64,128 z"
   inkscape:connector-curvature="0" />
	</g>
</g><path
     inkscape:connector-curvature="0"
     id="path3079"
     d="m 246.61123,235.48717 8.42762,20.34401 -60.53352,24.97821 c -33.29345,13.73801 -60.56938,24.89414 -60.61319,24.79139 -0.0812,-0.19045 103.97635,-90.58807 104.17984,-90.50383 0.0614,0.0254 3.90406,9.20101 8.53925,20.39022 z"
     style="fill:#ff0000;fill-opacity:1;fill-rule:nonzero;stroke:#d40000;stroke-width:0.47393364" /><path
     inkscape:connector-curvature="0"
     id="path3081"
     d="m 264.08914,276.84597 8.64782,20.867 -70.7466,5.04245 c -38.91062,2.77333 -70.76721,4.99267 -70.79241,4.93186 -0.0252,-0.0607 0.5067,-0.59405 1.18204,-1.18494 0.98987,-0.86611 1.2589,-1.01554 1.38799,-0.77092 0.1278,0.24216 1.56614,-0.27167 7.12317,-2.54466 20.88201,-8.5414 47.82657,-19.63153 79.25731,-32.62156 l 35.29286,-14.58621 8.64782,20.86698 z"
     style="fill:#d40000;fill-opacity:1;fill-rule:nonzero;stroke:#d40000;stroke-width:0.19305019" /></g></svg>