<?xml version="1.0" encoding="UTF-8" standalone="no"?>
<!-- Created with Inkscape (http://www.inkscape.org/) -->

<svg
   xmlns:dc="http://purl.org/dc/elements/1.1/"
   xmlns:cc="http://creativecommons.org/ns#"
   xmlns:rdf="http://www.w3.org/1999/02/22-rdf-syntax-ns#"
   xmlns:svg="http://www.w3.org/2000/svg"
   xmlns="http://www.w3.org/2000/svg"
   xmlns:sodipodi="http://sodipodi.sourceforge.net/DTD/sodipodi-0.dtd"
   xmlns:inkscape="http://www.inkscape.org/namespaces/inkscape"
   width="200"
   height="100"
   viewBox="0 0 200 100"
   id="svg4185"
   version="1.1"
   inkscape:version="0.91 r13725"
   sodipodi:docname="hd1080i.svg">
  <defs
     id="defs4187" />
  <sodipodi:namedview
     id="base"
     pagecolor="#ffffff"
     bordercolor="#000000"
     borderopacity="0"
     inkscape:pageopacity="0.0"
     inkscape:pageshadow="2"
     inkscape:zoom="4.1873525"
     inkscape:cx="98.892273"
     inkscape:cy="58.256465"
     inkscape:document-units="px"
     inkscape:current-layer="layer4"
     showgrid="false"
     units="px"
     inkscape:window-width="1920"
     inkscape:window-height="1017"
     inkscape:window-x="-8"
     inkscape:window-y="-8"
     inkscape:window-maximized="1"
     showguides="false" />
  <metadata
     id="metadata4190">
    <rdf:RDF>
      <cc:Work
         rdf:about="">
        <dc:format>image/svg+xml</dc:format>
        <dc:type
           rdf:resource="http://purl.org/dc/dcmitype/StillImage" />
        <dc:title></dc:title>
      </cc:Work>
    </rdf:RDF>
  </metadata>
  <g
     inkscape:groupmode="layer"
     id="layer4"
     inkscape:label="Layer 1">
    <path
       style="opacity:1;fill:#{sdcol(clrIcon)};fill-opacity:{sdopac(clrIcon)};stroke:none;stroke-width:7.46099997;stroke-linejoin:miter;stroke-miterlimit:4;stroke-dasharray:none;stroke-opacity:1"
       d="M 0 0 L 0 100 L 200 100 L 200 0 L 0 0 z M 3 3 L 83 3 L 83 97 L 3 97 L 3 3 z M 191.125 34.867188 C 191.78418 34.867188 192.34082 35.094727 192.79492 35.548828 C 193.26367 35.988281 193.49805 36.544922 193.49805 37.21875 C 193.49805 37.863281 193.26367 38.411133 192.79492 38.865234 C 192.34082 39.319336 191.78418 39.546875 191.125 39.546875 C 190.48047 39.546875 189.93066 39.328125 189.47656 38.888672 C 189.02246 38.449219 188.79492 37.892578 188.79492 37.21875 C 188.79492 36.544922 189.02246 35.988281 189.47656 35.548828 C 189.93066 35.094727 190.48047 34.867188 191.125 34.867188 z M 103.14648 35.548828 L 104.50781 35.548828 L 104.50781 67.759766 L 100.9043 67.759766 L 100.9043 40.535156 C 100.62598 40.813477 100.21582 41.135742 99.673828 41.501953 C 99.146484 41.853516 98.546875 42.205078 97.873047 42.556641 C 97.213867 42.908203 96.510742 43.239258 95.763672 43.546875 C 95.03125 43.854492 94.3125 44.095703 93.609375 44.271484 L 93.609375 40.623047 C 94.400391 40.40332 95.236328 40.110352 96.115234 39.744141 C 97.008789 39.363281 97.880859 38.946289 98.730469 38.492188 C 99.594727 38.023438 100.40625 37.541016 101.16797 37.042969 C 101.92969 36.530273 102.58984 36.032227 103.14648 35.548828 z M 125.36133 35.724609 C 131.96777 35.724609 135.26953 41.106445 135.26953 51.873047 C 135.26953 54.509766 135.02832 56.84668 134.54492 58.882812 C 134.07617 60.918945 133.38867 62.640625 132.48047 64.046875 C 131.58691 65.438477 130.48047 66.5 129.16211 67.232422 C 127.8584 67.950195 126.37109 68.308594 124.70117 68.308594 C 123.11914 68.308594 121.70605 67.96582 120.46094 67.277344 C 119.23047 66.574219 118.18945 65.555664 117.33984 64.222656 C 116.49023 62.889648 115.8457 61.255859 115.40625 59.322266 C 114.9668 57.374023 114.74805 55.147461 114.74805 52.642578 C 114.74805 49.888672 114.97559 47.457031 115.42969 45.347656 C 115.89844 43.238281 116.5791 41.473633 117.47266 40.052734 C 118.36621 38.617188 119.47266 37.540039 120.79102 36.822266 C 122.12402 36.089844 123.64746 35.724609 125.36133 35.724609 z M 149.31055 35.724609 C 150.58496 35.724609 151.76367 35.929688 152.84766 36.339844 C 153.93164 36.75 154.86914 37.313477 155.66016 38.03125 C 156.45117 38.749023 157.06641 39.598633 157.50586 40.580078 C 157.94531 41.561523 158.16602 42.623047 158.16602 43.765625 C 158.16602 45.21582 157.7627 46.541016 156.95703 47.742188 C 156.15137 48.928711 155.08301 49.904297 153.75 50.666016 C 154.6582 51.017578 155.46973 51.493164 156.1875 52.09375 C 156.90527 52.694336 157.50684 53.361328 157.99023 54.09375 C 158.48828 54.826172 158.86914 55.617188 159.13281 56.466797 C 159.39648 57.301758 159.52734 58.135742 159.52734 58.970703 C 159.52734 60.347656 159.2793 61.607422 158.78125 62.75 C 158.2832 63.892578 157.58008 64.875 156.67188 65.695312 C 155.77832 66.500977 154.70117 67.129883 153.44141 67.583984 C 152.19629 68.038086 150.81934 68.265625 149.31055 68.265625 C 147.81641 68.265625 146.44629 68.038086 145.20117 67.583984 C 143.95605 67.129883 142.88086 66.500977 141.97266 65.695312 C 141.06445 64.875 140.35254 63.892578 139.83984 62.75 C 139.3418 61.607422 139.09375 60.347656 139.09375 58.970703 C 139.09375 58.135742 139.22461 57.301758 139.48828 56.466797 C 139.75195 55.617188 140.12598 54.826172 140.60938 54.09375 C 141.10742 53.361328 141.71582 52.694336 142.43359 52.09375 C 143.16602 51.493164 143.99316 51.017578 144.91602 50.666016 C 143.55371 49.904297 142.46973 48.928711 141.66406 47.742188 C 140.8584 46.541016 140.45508 45.21582 140.45508 43.765625 C 140.45508 42.608398 140.67578 41.540039 141.11523 40.558594 C 141.56934 39.577148 142.19141 38.727539 142.98242 38.009766 C 143.77344 37.291992 144.71094 36.735352 145.79492 36.339844 C 146.87891 35.929688 148.05078 35.724609 149.31055 35.724609 z M 173.87695 35.724609 C 180.4834 35.724609 183.78516 41.106445 183.78516 51.873047 C 183.78516 54.509766 183.54395 56.84668 183.06055 58.882812 C 182.5918 60.918945 181.9043 62.640625 180.99609 64.046875 C 180.10254 65.438477 178.99609 66.5 177.67773 67.232422 C 176.37402 67.950195 174.88672 68.308594 173.2168 68.308594 C 171.63477 68.308594 170.22168 67.96582 168.97656 67.277344 C 167.74609 66.574219 166.70508 65.555664 165.85547 64.222656 C 165.00586 62.889648 164.36133 61.255859 163.92188 59.322266 C 163.48242 57.374023 163.26367 55.147461 163.26367 52.642578 C 163.26367 49.888672 163.49121 47.457031 163.94531 45.347656 C 164.41406 43.238281 165.09473 41.473633 165.98828 40.052734 C 166.88184 38.617188 167.98828 37.540039 169.30664 36.822266 C 170.63965 36.089844 172.16309 35.724609 173.87695 35.724609 z M 149.33203 38.755859 C 148.55566 38.755859 147.8457 38.895508 147.20117 39.173828 C 146.57129 39.452148 146.02148 39.833008 145.55273 40.316406 C 145.09863 40.785156 144.74707 41.341797 144.49805 41.986328 C 144.24902 42.630859 144.125 43.318359 144.125 44.050781 C 144.125 44.797852 144.25781 45.494141 144.52148 46.138672 C 144.7998 46.768555 145.17188 47.325195 145.64062 47.808594 C 146.12402 48.277344 146.68066 48.651367 147.31055 48.929688 C 147.94043 49.193359 148.61426 49.324219 149.33203 49.324219 C 150.0498 49.324219 150.72363 49.186523 151.35352 48.908203 C 151.99805 48.629883 152.55469 48.255859 153.02344 47.787109 C 153.49219 47.303711 153.86621 46.74707 154.14453 46.117188 C 154.42285 45.472656 154.5625 44.783203 154.5625 44.050781 C 154.5625 43.289062 154.42285 42.585938 154.14453 41.941406 C 153.88086 41.296875 153.51562 40.740234 153.04688 40.271484 C 152.57812 39.802734 152.02148 39.4375 151.37695 39.173828 C 150.74707 38.895508 150.06445 38.755859 149.33203 38.755859 z M 125.18555 38.777344 C 120.68848 38.777344 118.43945 43.34082 118.43945 52.466797 C 118.43945 60.977539 120.64355 65.232422 125.05273 65.232422 C 129.40332 65.232422 131.57812 60.896484 131.57812 52.224609 C 131.57812 43.259766 129.44824 38.777344 125.18555 38.777344 z M 173.70117 38.777344 C 169.2041 38.777344 166.95508 43.34082 166.95508 52.466797 C 166.95508 60.977539 169.15918 65.232422 173.56836 65.232422 C 177.91895 65.232422 180.09375 60.896484 180.09375 52.224609 C 180.09375 43.259766 177.96387 38.777344 173.70117 38.777344 z M 189.2793 45.259766 L 192.88281 45.259766 L 192.88281 67.759766 L 189.2793 67.759766 L 189.2793 45.259766 z M 149.33203 52.269531 C 148.42383 52.269531 147.58301 52.429688 146.80664 52.751953 C 146.04492 53.05957 145.37793 53.499023 144.80664 54.070312 C 144.25 54.626953 143.81055 55.300781 143.48828 56.091797 C 143.16602 56.868164 143.00391 57.726562 143.00391 58.664062 C 143.00391 59.645508 143.15039 60.53125 143.44336 61.322266 C 143.75098 62.113281 144.17676 62.787109 144.71875 63.34375 C 145.27539 63.900391 145.94238 64.333008 146.71875 64.640625 C 147.50977 64.933594 148.37988 65.080078 149.33203 65.080078 C 150.25488 65.080078 151.10449 64.924805 151.88086 64.617188 C 152.65723 64.30957 153.32422 63.878906 153.88086 63.322266 C 154.45215 62.765625 154.8916 62.091797 155.19922 61.300781 C 155.52148 60.509766 155.68359 59.630859 155.68359 58.664062 C 155.68359 57.785156 155.52832 56.964844 155.2207 56.203125 C 154.92773 55.426758 154.50391 54.744141 153.94727 54.158203 C 153.39062 53.572266 152.72363 53.112305 151.94727 52.775391 C 151.1709 52.438477 150.29883 52.269531 149.33203 52.269531 z "
       id="rect4211" />
  </g>
  <g
     inkscape:groupmode="layer"
     id="layer5"
     inkscape:label="Layer 2">
    <g
       style="font-style:normal;font-weight:normal;font-size:40px;line-height:125%;font-family:sans-serif;letter-spacing:0px;word-spacing:0px;fill:#{sdcol(clrIcon)};fill-opacity:{sdopac(clrIcon)};stroke:none;stroke-width:1px;stroke-linecap:butt;stroke-linejoin:miter;stroke-opacity:1"
       id="text4217"
       transform="matrix(0.89085816,0,0,0.89085816,5.0668384,6.3056439)">
      <path
         d="m 35.553985,68.715317 -7.93457,0 2.978515,-14.160156 -14.379882,0 -3.00293,14.160156 -7.9589844,0 7.4462894,-35.009766 7.958984,0 -3.00293,13.964844 14.404297,0 3.00293,-13.964844 7.93457,0 -7.446289,35.009766 z"
         style="font-style:italic;font-variant:normal;font-weight:bold;font-stretch:normal;font-size:50px;font-family:'Segoe UI';-inkscape-font-specification:'Segoe UI Bold Italic'"
         id="path4222"
         inkscape:connector-curvature="0" />
      <path
         d="m 78.840118,47.865707 q 0,2.758789 -0.561524,5.395508 -0.561523,2.612305 -1.708984,4.931641 -1.123047,2.319336 -2.856445,4.248047 -1.733399,1.928711 -4.101563,3.320312 -2.34375,1.391602 -5.346679,2.172852 -3.00293,0.78125 -6.665039,0.78125 l -14.160157,0 7.446289,-35.009766 12.304688,0 q 3.857422,0 6.762695,1.049805 2.929688,1.049805 4.907227,2.929687 1.977539,1.855469 2.978515,4.467774 1.000977,2.58789 1.000977,5.71289 z m -8.349609,0.610352 q 0,-1.953125 -0.561524,-3.491211 -0.537109,-1.5625 -1.68457,-2.636719 -1.123047,-1.074218 -2.856446,-1.635742 -1.733398,-0.585937 -4.101562,-0.585937 l -3.833008,0 -4.711914,22.192382 4.80957,0 q 2.978516,0 5.371094,-0.976562 2.392578,-1.000977 4.077149,-2.807617 1.68457,-1.831055 2.58789,-4.370117 0.903321,-2.563477 0.903321,-5.688477 z"
         style="font-style:italic;font-variant:normal;font-weight:bold;font-stretch:normal;font-size:50px;font-family:'Segoe UI';-inkscape-font-specification:'Segoe UI Bold Italic'"
         id="path4224"
         inkscape:connector-curvature="0" />
    </g>
  </g>
</svg>
