<?xml version="1.0" encoding="UTF-8" standalone="no"?>
<!-- Created with Inkscape (http://www.inkscape.org/) -->

<svg
   xmlns:dc="http://purl.org/dc/elements/1.1/"
   xmlns:cc="http://creativecommons.org/ns#"
   xmlns:rdf="http://www.w3.org/1999/02/22-rdf-syntax-ns#"
   xmlns:svg="http://www.w3.org/2000/svg"
   xmlns="http://www.w3.org/2000/svg"
   xmlns:sodipodi="http://sodipodi.sourceforge.net/DTD/sodipodi-0.dtd"
   xmlns:inkscape="http://www.inkscape.org/namespaces/inkscape"
   width="500"
   height="300"
   viewBox="0 0 500 300"
   id="svg2"
   version="1.1"
   inkscape:version="0.91 r13725"
   sodipodi:docname="recording_new.svg">
  <defs
     id="defs4" />
  <sodipodi:namedview
     id="base"
     pagecolor="#ffffff"
     bordercolor="#666666"
     borderopacity="1.0"
     inkscape:pageopacity="0.0"
     inkscape:pageshadow="2"
     inkscape:zoom="2.49377"
     inkscape:cx="257.52964"
     inkscape:cy="159.1045"
     inkscape:document-units="px"
     inkscape:current-layer="layer1"
     showgrid="false"
     units="px"
     inkscape:window-width="1920"
     inkscape:window-height="1017"
     inkscape:window-x="-8"
     inkscape:window-y="-8"
     inkscape:window-maximized="1" />
  <metadata
     id="metadata7">
    <rdf:RDF>
      <cc:Work
         rdf:about="">
        <dc:format>image/svg+xml</dc:format>
        <dc:type
           rdf:resource="http://purl.org/dc/dcmitype/StillImage" />
        <dc:title></dc:title>
      </cc:Work>
    </rdf:RDF>
  </metadata>
  <g
     inkscape:groupmode="layer"
     id="layer2"
     inkscape:label="NEW"
     style="display:inline">
    <g
       transform="matrix(1.2969428,-0.00508132,0.00508132,1.2969428,-75.741777,-43.751957)"
       style="font-style:normal;font-weight:normal;font-size:117.1257019px;line-height:125%;font-family:sans-serif;letter-spacing:0px;word-spacing:0px;fill:#{sdcol(clrIcon)};fill-opacity:{sdopac(clrIcon)};stroke:none;stroke-width:1px;stroke-linecap:butt;stroke-linejoin:miter;stroke-opacity:1"
       id="text4166">
      <path
         d="m 196.08196,189.34065 -18.64403,0 -33.79946,-51.52844 q -2.97389,-4.51804 -4.1177,-6.80565 l -0.22876,0 q 0.45753,4.34646 0.45753,13.26815 l 0,45.06594 -17.44304,0 0,-82.01086 19.90222,0 32.54127,49.92711 q 2.23042,3.37423 4.1177,6.69127 l 0.22876,0 q -0.45752,-2.85952 -0.45752,-11.26649 l 0,-45.35189 17.44303,0 0,82.01086 z"
         style="font-style:normal;font-variant:normal;font-weight:bold;font-stretch:normal;font-family:'Segoe UI';-inkscape-font-specification:'Segoe UI Bold';fill:#{sdcol(clrIcon)}"
         id="path4180"
         inkscape:connector-curvature="0" />
      <path
         d="m 264.1384,189.34065 -49.18364,0 0,-82.01086 47.29637,0 0,15.04104 -28.82391,0 0,18.2437 26.82225,0 0,14.98385 -26.82225,0 0,18.75842 30.71118,0 0,14.98385 z"
         style="font-style:normal;font-variant:normal;font-weight:bold;font-stretch:normal;font-family:'Segoe UI';-inkscape-font-specification:'Segoe UI Bold';fill:#{sdcol(clrIcon)}"
         id="path4182"
         inkscape:connector-curvature="0" />
      <path
         d="m 386.98314,107.32979 -21.67512,82.01086 -20.47412,0 -13.61129,-52.61506 q -1.08662,-4.1177 -1.31538,-9.20763 l -0.22876,0 q -0.51471,5.60464 -1.48695,9.20763 l -13.95443,52.61506 -21.33197,0 -21.56074,-82.01086 20.18817,0 11.55244,54.61672 q 0.74347,3.4886 1.08661,9.3792 l 0.34315,0 q 0.22876,-4.40365 1.65851,-9.60796 l 14.86948,-54.38796 19.78784,0 13.43971,55.07424 q 0.74348,3.03108 1.31538,8.8073 l 0.22876,0 q 0.22876,-4.51803 1.201,-9.15044 l 11.32367,-54.7311 18.64404,0 z"
         style="font-style:normal;font-variant:normal;font-weight:bold;font-stretch:normal;font-family:'Segoe UI';-inkscape-font-specification:'Segoe UI Bold';fill:#{sdcol(clrIcon)}"
         id="path4184"
         inkscape:connector-curvature="0" />
    </g>
  </g>
  <g
     inkscape:label="Movie"
     inkscape:groupmode="layer"
     id="layer1"
     transform="translate(0,-752.36216)">
    <path
       style="opacity:1;fill:#{sdcol(clrIcon)};fill-opacity:{sdopac(clrIcon)};stroke:none;stroke-width:7.46099997;stroke-linejoin:miter;stroke-miterlimit:4;stroke-dasharray:none;stroke-opacity:1"
       d="M 0 0 L 0 300 L 500 300 L 500 0 L 0 0 z M 23.207031 7 L 56.792969 7 C 58.570198 7 60 8.4317614 60 10.208984 L 60 28.792969 C 60 30.570198 58.570198 32 56.792969 32 L 23.207031 32 C 21.429802 32 20 30.570198 20 28.792969 L 20 10.208984 C 20 8.4317614 21.429802 7 23.207031 7 z M 83.207031 7 L 116.79297 7 C 118.5702 7 120 8.431761 120 10.208984 L 120 28.792969 C 120 30.570198 118.5702 32 116.79297 32 L 83.207031 32 C 81.429802 32 80 30.570198 80 28.792969 L 80 10.208984 C 80 8.431761 81.429802 7 83.207031 7 z M 143.20703 7 L 176.79297 7 C 178.5702 7 180 8.4317606 180 10.208984 L 180 28.792969 C 180 30.570198 178.5702 32 176.79297 32 L 143.20703 32 C 141.4298 32 140 30.570198 140 28.792969 L 140 10.208984 C 140 8.4317606 141.4298 7 143.20703 7 z M 203.20703 7 L 236.79297 7 C 238.5702 7 240 8.4317602 240 10.208984 L 240 28.792969 C 240 30.570198 238.5702 32 236.79297 32 L 203.20703 32 C 201.4298 32 200 30.570198 200 28.792969 L 200 10.208984 C 200 8.4317602 201.4298 7 203.20703 7 z M 263.20703 7 L 296.79297 7 C 298.5702 7 300 8.4317598 300 10.208984 L 300 28.792969 C 300 30.570198 298.5702 32 296.79297 32 L 263.20703 32 C 261.4298 32 260 30.570198 260 28.792969 L 260 10.208984 C 260 8.4317598 261.4298 7 263.20703 7 z M 323.20703 7 L 356.79297 7 C 358.5702 7 360 8.4317594 360 10.208984 L 360 28.792969 C 360 30.570198 358.5702 32 356.79297 32 L 323.20703 32 C 321.4298 32 320 30.570198 320 28.792969 L 320 10.208984 C 320 8.4317594 321.4298 7 323.20703 7 z M 383.20703 7 L 416.79297 7 C 418.5702 7 420 8.431759 420 10.208984 L 420 28.792969 C 420 30.570198 418.5702 32 416.79297 32 L 383.20703 32 C 381.4298 32 380 30.570198 380 28.792969 L 380 10.208984 C 380 8.431759 381.4298 7 383.20703 7 z M 443.20703 7 L 476.79297 7 C 478.5702 7 480 8.4317586 480 10.208984 L 480 28.792969 C 480 30.570198 478.5702 32 476.79297 32 L 443.20703 32 C 441.4298 32 440 30.570198 440 28.792969 L 440 10.208984 C 440 8.4317586 441.4298 7 443.20703 7 z M 50.265625 40 L 449.73438 40 C 469.27164 40 485 55.728357 485 75.265625 L 485 224.73438 C 485 244.27164 469.27148 260 449.73438 260 L 50.265625 260 C 30.728357 260 15 244.27163 15 224.73438 L 15 75.265625 C 15 55.728357 30.728357 40 50.265625 40 z M 23.207031 268 L 56.792969 268 C 58.570198 268 60 269.43176 60 271.20898 L 60 289.79297 C 60 291.5702 58.570198 293 56.792969 293 L 23.207031 293 C 21.429802 293 20 291.5702 20 289.79297 L 20 271.20898 C 20 269.43176 21.429802 268 23.207031 268 z M 83.207031 268 L 116.79297 268 C 118.5702 268 120 269.43176 120 271.20898 L 120 289.79297 C 120 291.5702 118.5702 293 116.79297 293 L 83.207031 293 C 81.429802 293 80 291.5702 80 289.79297 L 80 271.20898 C 80 269.43176 81.429802 268 83.207031 268 z M 143.20703 268 L 176.79297 268 C 178.5702 268 180 269.43176 180 271.20898 L 180 289.79297 C 180 291.5702 178.5702 293 176.79297 293 L 143.20703 293 C 141.4298 293 140 291.5702 140 289.79297 L 140 271.20898 C 140 269.43176 141.4298 268 143.20703 268 z M 203.20703 268 L 236.79297 268 C 238.5702 268 240 269.43176 240 271.20898 L 240 289.79297 C 240 291.5702 238.5702 293 236.79297 293 L 203.20703 293 C 201.4298 293 200 291.5702 200 289.79297 L 200 271.20898 C 200 269.43176 201.4298 268 203.20703 268 z M 263.20703 268 L 296.79297 268 C 298.5702 268 300 269.43176 300 271.20898 L 300 289.79297 C 300 291.5702 298.5702 293 296.79297 293 L 263.20703 293 C 261.4298 293 260 291.5702 260 289.79297 L 260 271.20898 C 260 269.43176 261.4298 268 263.20703 268 z M 323.20703 268 L 356.79297 268 C 358.5702 268 360 269.43176 360 271.20898 L 360 289.79297 C 360 291.5702 358.5702 293 356.79297 293 L 323.20703 293 C 321.4298 293 320 291.5702 320 289.79297 L 320 271.20898 C 320 269.43176 321.4298 268 323.20703 268 z M 383.20703 268 L 416.79297 268 C 418.5702 268 420 269.43176 420 271.20898 L 420 289.79297 C 420 291.5702 418.5702 293 416.79297 293 L 383.20703 293 C 381.4298 293 380 291.5702 380 289.79297 L 380 271.20898 C 380 269.43176 381.4298 268 383.20703 268 z M 443.20703 268 L 476.79297 268 C 478.5702 268 480 269.43176 480 271.20898 L 480 289.79297 C 480 291.5702 478.5702 293 476.79297 293 L 443.20703 293 C 441.4298 293 440 291.5702 440 289.79297 L 440 271.20898 C 440 269.43176 441.4298 268 443.20703 268 z "
       transform="translate(0,752.36216)"
       id="rect4193" />
  </g>
</svg>
