<?xml version="1.0" encoding="UTF-8" standalone="no"?>
<!-- Created with Inkscape (http://www.inkscape.org/) -->

<svg
   xmlns:dc="http://purl.org/dc/elements/1.1/"
   xmlns:cc="http://creativecommons.org/ns#"
   xmlns:rdf="http://www.w3.org/1999/02/22-rdf-syntax-ns#"
   xmlns:svg="http://www.w3.org/2000/svg"
   xmlns="http://www.w3.org/2000/svg"
   xmlns:sodipodi="http://sodipodi.sourceforge.net/DTD/sodipodi-0.dtd"
   xmlns:inkscape="http://www.inkscape.org/namespaces/inkscape"
   width="500"
   height="300"
   viewBox="0 0 500 300"
   id="svg2"
   version="1.1"
   inkscape:version="0.91 r13725"
   sodipodi:docname="recording_seen.svg">
  <defs
     id="defs4" />
  <sodipodi:namedview
     id="base"
     pagecolor="#ffffff"
     bordercolor="#666666"
     borderopacity="1.0"
     inkscape:pageopacity="0.0"
     inkscape:pageshadow="2"
     inkscape:zoom="2.49377"
     inkscape:cx="192.16676"
     inkscape:cy="159.1045"
     inkscape:document-units="px"
     inkscape:current-layer="layer1"
     showgrid="false"
     units="px"
     inkscape:window-width="1920"
     inkscape:window-height="1017"
     inkscape:window-x="-8"
     inkscape:window-y="-8"
     inkscape:window-maximized="1" />
  <metadata
     id="metadata7">
    <rdf:RDF>
      <cc:Work
         rdf:about="">
        <dc:format>image/svg+xml</dc:format>
        <dc:type
           rdf:resource="http://purl.org/dc/dcmitype/StillImage" />
        <dc:title></dc:title>
      </cc:Work>
    </rdf:RDF>
  </metadata>
  <g
     inkscape:groupmode="layer"
     id="layer4"
     inkscape:label="Seen"
     style="display:inline">
    <rect
       ry="0"
       y="35.412926"
       x="12.027889"
       height="226.10344"
       width="475.784"
       id="rect4294"
       style="display:inline;opacity:1;fill:#{sdcol(clrIconRecstatusProgress)};fill-opacity:{sdopac(clrIconRecstatusProgress)};stroke:none;stroke-width:0.99427509;stroke-miterlimit:4;stroke-dasharray:none;stroke-opacity:1" />
    <path
       style="fill:#{sdcol(clrIcon)};fill-rule:evenodd;stroke:none;stroke-width:1px;stroke-linecap:butt;stroke-linejoin:miter;stroke-opacity:1"
       d="m 147.85989,197.02939 c 1.3477,-2.69535 31.67053,-41.10428 31.67053,-41.10428 l 60.64564,57.95032 78.1655,-165.09095 37.06127,24.258262 -114.55292,176.546228 z"
       id="path4179"
       inkscape:connector-curvature="0"
       sodipodi:nodetypes="ccccccc" />
  </g>
  <g
     inkscape:label="Movie"
     inkscape:groupmode="layer"
     id="layer1"
     transform="translate(0,-752.36216)">
    <path
       style="opacity:1;fill:#{sdcol(clrIcon)};fill-opacity:{sdopac(clrIcon)};stroke:none;stroke-width:7.46099997;stroke-linejoin:miter;stroke-miterlimit:4;stroke-dasharray:none;stroke-opacity:1"
       d="M 0 0 L 0 300 L 500 300 L 500 0 L 0 0 z M 23.207031 7 L 56.792969 7 C 58.570198 7 60 8.4317614 60 10.208984 L 60 28.792969 C 60 30.570198 58.570198 32 56.792969 32 L 23.207031 32 C 21.429802 32 20 30.570198 20 28.792969 L 20 10.208984 C 20 8.4317614 21.429802 7 23.207031 7 z M 83.207031 7 L 116.79297 7 C 118.5702 7 120 8.431761 120 10.208984 L 120 28.792969 C 120 30.570198 118.5702 32 116.79297 32 L 83.207031 32 C 81.429802 32 80 30.570198 80 28.792969 L 80 10.208984 C 80 8.431761 81.429802 7 83.207031 7 z M 143.20703 7 L 176.79297 7 C 178.5702 7 180 8.4317606 180 10.208984 L 180 28.792969 C 180 30.570198 178.5702 32 176.79297 32 L 143.20703 32 C 141.4298 32 140 30.570198 140 28.792969 L 140 10.208984 C 140 8.4317606 141.4298 7 143.20703 7 z M 203.20703 7 L 236.79297 7 C 238.5702 7 240 8.4317602 240 10.208984 L 240 28.792969 C 240 30.570198 238.5702 32 236.79297 32 L 203.20703 32 C 201.4298 32 200 30.570198 200 28.792969 L 200 10.208984 C 200 8.4317602 201.4298 7 203.20703 7 z M 263.20703 7 L 296.79297 7 C 298.5702 7 300 8.4317598 300 10.208984 L 300 28.792969 C 300 30.570198 298.5702 32 296.79297 32 L 263.20703 32 C 261.4298 32 260 30.570198 260 28.792969 L 260 10.208984 C 260 8.4317598 261.4298 7 263.20703 7 z M 323.20703 7 L 356.79297 7 C 358.5702 7 360 8.4317594 360 10.208984 L 360 28.792969 C 360 30.570198 358.5702 32 356.79297 32 L 323.20703 32 C 321.4298 32 320 30.570198 320 28.792969 L 320 10.208984 C 320 8.4317594 321.4298 7 323.20703 7 z M 383.20703 7 L 416.79297 7 C 418.5702 7 420 8.431759 420 10.208984 L 420 28.792969 C 420 30.570198 418.5702 32 416.79297 32 L 383.20703 32 C 381.4298 32 380 30.570198 380 28.792969 L 380 10.208984 C 380 8.431759 381.4298 7 383.20703 7 z M 443.20703 7 L 476.79297 7 C 478.5702 7 480 8.4317586 480 10.208984 L 480 28.792969 C 480 30.570198 478.5702 32 476.79297 32 L 443.20703 32 C 441.4298 32 440 30.570198 440 28.792969 L 440 10.208984 C 440 8.4317586 441.4298 7 443.20703 7 z M 50.265625 40 L 449.73438 40 C 469.27164 40 485 55.728357 485 75.265625 L 485 224.73438 C 485 244.27164 469.27148 260 449.73438 260 L 50.265625 260 C 30.728357 260 15 244.27163 15 224.73438 L 15 75.265625 C 15 55.728357 30.728357 40 50.265625 40 z M 23.207031 268 L 56.792969 268 C 58.570198 268 60 269.43176 60 271.20898 L 60 289.79297 C 60 291.5702 58.570198 293 56.792969 293 L 23.207031 293 C 21.429802 293 20 291.5702 20 289.79297 L 20 271.20898 C 20 269.43176 21.429802 268 23.207031 268 z M 83.207031 268 L 116.79297 268 C 118.5702 268 120 269.43176 120 271.20898 L 120 289.79297 C 120 291.5702 118.5702 293 116.79297 293 L 83.207031 293 C 81.429802 293 80 291.5702 80 289.79297 L 80 271.20898 C 80 269.43176 81.429802 268 83.207031 268 z M 143.20703 268 L 176.79297 268 C 178.5702 268 180 269.43176 180 271.20898 L 180 289.79297 C 180 291.5702 178.5702 293 176.79297 293 L 143.20703 293 C 141.4298 293 140 291.5702 140 289.79297 L 140 271.20898 C 140 269.43176 141.4298 268 143.20703 268 z M 203.20703 268 L 236.79297 268 C 238.5702 268 240 269.43176 240 271.20898 L 240 289.79297 C 240 291.5702 238.5702 293 236.79297 293 L 203.20703 293 C 201.4298 293 200 291.5702 200 289.79297 L 200 271.20898 C 200 269.43176 201.4298 268 203.20703 268 z M 263.20703 268 L 296.79297 268 C 298.5702 268 300 269.43176 300 271.20898 L 300 289.79297 C 300 291.5702 298.5702 293 296.79297 293 L 263.20703 293 C 261.4298 293 260 291.5702 260 289.79297 L 260 271.20898 C 260 269.43176 261.4298 268 263.20703 268 z M 323.20703 268 L 356.79297 268 C 358.5702 268 360 269.43176 360 271.20898 L 360 289.79297 C 360 291.5702 358.5702 293 356.79297 293 L 323.20703 293 C 321.4298 293 320 291.5702 320 289.79297 L 320 271.20898 C 320 269.43176 321.4298 268 323.20703 268 z M 383.20703 268 L 416.79297 268 C 418.5702 268 420 269.43176 420 271.20898 L 420 289.79297 C 420 291.5702 418.5702 293 416.79297 293 L 383.20703 293 C 381.4298 293 380 291.5702 380 289.79297 L 380 271.20898 C 380 269.43176 381.4298 268 383.20703 268 z M 443.20703 268 L 476.79297 268 C 478.5702 268 480 269.43176 480 271.20898 L 480 289.79297 C 480 291.5702 478.5702 293 476.79297 293 L 443.20703 293 C 441.4298 293 440 291.5702 440 289.79297 L 440 271.20898 C 440 269.43176 441.4298 268 443.20703 268 z "
       transform="translate(0,752.36216)"
       id="rect4193" />
  </g>
</svg>
