<?xml version="1.0" encoding="UTF-8" standalone="no"?>
<!-- Created with Inkscape (http://www.inkscape.org/) -->

<svg
   xmlns:dc="http://purl.org/dc/elements/1.1/"
   xmlns:cc="http://creativecommons.org/ns#"
   xmlns:rdf="http://www.w3.org/1999/02/22-rdf-syntax-ns#"
   xmlns:svg="http://www.w3.org/2000/svg"
   xmlns="http://www.w3.org/2000/svg"
   xmlns:sodipodi="http://sodipodi.sourceforge.net/DTD/sodipodi-0.dtd"
   xmlns:inkscape="http://www.inkscape.org/namespaces/inkscape"
   width="500"
   height="300"
   viewBox="0 0 500 300"
   id="svg2"
   version="1.1"
   inkscape:version="0.91 r13725"
   sodipodi:docname="recording_60perc.svg">
  <defs
     id="defs4" />
  <sodipodi:namedview
     id="base"
     pagecolor="#ffffff"
     bordercolor="#666666"
     borderopacity="1.0"
     inkscape:pageopacity="0.0"
     inkscape:pageshadow="2"
     inkscape:zoom="2.49377"
     inkscape:cx="126.80388"
     inkscape:cy="159.1045"
     inkscape:document-units="px"
     inkscape:current-layer="layer1"
     showgrid="false"
     units="px"
     inkscape:window-width="1920"
     inkscape:window-height="1017"
     inkscape:window-x="-8"
     inkscape:window-y="-8"
     inkscape:window-maximized="1" />
  <metadata
     id="metadata7">
    <rdf:RDF>
      <cc:Work
         rdf:about="">
        <dc:format>image/svg+xml</dc:format>
        <dc:type
           rdf:resource="http://purl.org/dc/dcmitype/StillImage" />
        <dc:title />
      </cc:Work>
    </rdf:RDF>
  </metadata>
  <g
     inkscape:groupmode="layer"
     id="layer11"
     inkscape:label="60 Percent"
     style="display:inline">
    <rect
       y="38.548466"
       x="14.034977"
       height="222.55461"
       width="299.94745"
       id="rect4316"
       style="display:inline;opacity:1;fill:#{sdcol(clrIconRecstatusProgress)};fill-opacity:{sdopac(clrIconRecstatusProgress)};stroke:none;stroke-width:7.46099997;stroke-linejoin:miter;stroke-miterlimit:4;stroke-dasharray:none;stroke-opacity:1" />
    <g
       style="font-style:normal;font-weight:normal;font-size:160.65275574px;line-height:125%;font-family:sans-serif;letter-spacing:0px;word-spacing:0px;display:inline;fill:#{sdcol(clrIcon)};fill-opacity:{sdopac(clrIcon)};stroke:none;stroke-width:1px;stroke-linecap:butt;stroke-linejoin:miter;stroke-opacity:1"
       id="text4284">
      <path
         d="m 169.64837,167.67931 q 0,8.31504 -2.90241,15.53186 -2.90242,7.21682 -8.07971,12.551 -5.17728,5.25573 -12.31566,8.31503 -7.13838,2.98086 -15.6103,2.98086 -9.4917,0 -17.02229,-3.52996 -7.45216,-3.52997 -12.62944,-10.19769 -5.17729,-6.74616 -7.92282,-16.47318 -2.745531,-9.72702 -2.745531,-22.04269 0,-14.51209 3.529968,-26.27865 3.608411,-11.845 10.197683,-20.23848 6.66772,-8.39348 16.08097,-12.943216 9.41324,-4.62818 21.1798,-4.62818 13.02166,0 20.23848,3.059305 l 0,20.709141 q -8.55036,-4.86351 -18.6696,-4.86351 -6.2755,0 -11.37434,2.43176 -5.09885,2.43175 -8.7857,6.90305 -3.60841,4.47129 -5.72639,10.82523 -2.03954,6.2755 -2.19643,14.04143 l 0.47066,0 q 8.00126,-11.06057 23.61157,-11.06057 6.98149,0 12.62944,2.5102 5.64795,2.5102 9.64858,7.13838 4.00063,4.54974 6.19705,10.98212 2.19642,6.43239 2.19642,14.27676 z m -24.23911,1.56888 q 0,-18.12051 -14.82586,-18.12051 -3.37308,0 -6.11861,1.2551 -2.74553,1.2551 -4.70663,3.52997 -1.96109,2.27487 -3.0593,5.41262 -1.01977,3.0593 -1.01977,6.8246 0,4.15752 1.09821,7.76593 1.09821,3.60841 3.05931,6.35394 2.03953,2.66709 4.78506,4.23597 2.74554,1.56887 6.11862,1.56887 3.37308,0 6.04016,-1.33354 2.74553,-1.41199 4.62818,-3.84375 1.9611,-2.51019 2.98086,-5.96172 1.01977,-3.52997 1.01977,-7.68748 z"
         style="font-style:normal;font-variant:normal;font-weight:bold;font-stretch:normal;font-family:'Segoe UI';-inkscape-font-specification:'Segoe UI Bold';fill:#{sdcol(clrIcon)}"
         id="path4222"
         inkscape:connector-curvature="0" />
      <path
         d="m 220.71524,207.05806 q -40.16319,0 -40.16319,-56.40104 0,-29.25951 10.82524,-44.55604 10.90367,-15.374966 31.53438,-15.374966 39.22186,0 39.22186,57.342366 0,28.55352 -10.74679,43.7716 -10.66835,15.21808 -30.6715,15.21808 z m 1.09821,-97.42711 q -16.08096,0 -16.08096,40.39852 0,38.04521 15.76719,38.04521 15.37497,0 15.37497,-39.22186 0,-39.22187 -15.0612,-39.22187 z"
         style="font-style:normal;font-variant:normal;font-weight:bold;font-stretch:normal;font-family:'Segoe UI';-inkscape-font-specification:'Segoe UI Bold';fill:#{sdcol(clrIcon)}"
         id="path4224"
         inkscape:connector-curvature="0" />
      <path
         d="m 301.43384,149.63725 q -12.00189,0 -19.3756,-7.60904 -7.29527,-7.60904 -7.29527,-20.47381 0,-14.04143 7.76593,-22.27802 7.84437,-8.236591 20.86603,-8.236591 12.47255,0 19.45404,7.452154 7.05994,7.452157 7.05994,20.944477 0,13.88454 -7.76593,22.04269 -7.76593,8.15814 -20.70914,8.15814 z m 1.49043,-44.79137 q -11.45279,0 -11.45279,15.92408 0,15.0612 10.90368,15.0612 11.13901,0 11.13901,-15.68875 0,-15.29653 -10.5899,-15.29653 z m 80.64015,-12.237217 -73.26644,112.488307 -19.14027,0 73.10955,-112.488307 19.29716,0 z M 371.48409,206.66584 q -12.00189,0 -19.3756,-7.60904 -7.29527,-7.60904 -7.29527,-20.47381 0,-14.04143 7.76593,-22.27802 7.84437,-8.23659 20.86603,-8.23659 12.551,0 19.53249,7.37371 6.98149,7.37371 6.98149,20.86603 0,13.88454 -7.76593,22.12113 -7.76593,8.23659 -20.70914,8.23659 z m 1.2551,-44.79136 q -11.37434,0 -11.37434,15.92407 0,15.0612 11.06056,15.0612 11.13901,0 11.13901,-15.68875 0,-7.29526 -2.98086,-11.29589 -2.98086,-4.00063 -7.84437,-4.00063 z"
         style="font-style:normal;font-variant:normal;font-weight:bold;font-stretch:normal;font-family:'Segoe UI';-inkscape-font-specification:'Segoe UI Bold';fill:#{sdcol(clrIcon)}"
         id="path4226"
         inkscape:connector-curvature="0" />
    </g>
  </g>
  <g
     inkscape:label="Movie"
     inkscape:groupmode="layer"
     id="layer1"
     transform="translate(0,-752.36216)">
    <path
       style="opacity:1;fill:#{sdcol(clrIcon)};fill-opacity:{sdopac(clrIcon)};stroke:none;stroke-width:7.46099997;stroke-linejoin:miter;stroke-miterlimit:4;stroke-dasharray:none;stroke-opacity:1"
       d="M 0 0 L 0 300 L 500 300 L 500 0 L 0 0 z M 23.207031 7 L 56.792969 7 C 58.570198 7 60 8.4317614 60 10.208984 L 60 28.792969 C 60 30.570198 58.570198 32 56.792969 32 L 23.207031 32 C 21.429802 32 20 30.570198 20 28.792969 L 20 10.208984 C 20 8.4317614 21.429802 7 23.207031 7 z M 83.207031 7 L 116.79297 7 C 118.5702 7 120 8.431761 120 10.208984 L 120 28.792969 C 120 30.570198 118.5702 32 116.79297 32 L 83.207031 32 C 81.429802 32 80 30.570198 80 28.792969 L 80 10.208984 C 80 8.431761 81.429802 7 83.207031 7 z M 143.20703 7 L 176.79297 7 C 178.5702 7 180 8.4317606 180 10.208984 L 180 28.792969 C 180 30.570198 178.5702 32 176.79297 32 L 143.20703 32 C 141.4298 32 140 30.570198 140 28.792969 L 140 10.208984 C 140 8.4317606 141.4298 7 143.20703 7 z M 203.20703 7 L 236.79297 7 C 238.5702 7 240 8.4317602 240 10.208984 L 240 28.792969 C 240 30.570198 238.5702 32 236.79297 32 L 203.20703 32 C 201.4298 32 200 30.570198 200 28.792969 L 200 10.208984 C 200 8.4317602 201.4298 7 203.20703 7 z M 263.20703 7 L 296.79297 7 C 298.5702 7 300 8.4317598 300 10.208984 L 300 28.792969 C 300 30.570198 298.5702 32 296.79297 32 L 263.20703 32 C 261.4298 32 260 30.570198 260 28.792969 L 260 10.208984 C 260 8.4317598 261.4298 7 263.20703 7 z M 323.20703 7 L 356.79297 7 C 358.5702 7 360 8.4317594 360 10.208984 L 360 28.792969 C 360 30.570198 358.5702 32 356.79297 32 L 323.20703 32 C 321.4298 32 320 30.570198 320 28.792969 L 320 10.208984 C 320 8.4317594 321.4298 7 323.20703 7 z M 383.20703 7 L 416.79297 7 C 418.5702 7 420 8.431759 420 10.208984 L 420 28.792969 C 420 30.570198 418.5702 32 416.79297 32 L 383.20703 32 C 381.4298 32 380 30.570198 380 28.792969 L 380 10.208984 C 380 8.431759 381.4298 7 383.20703 7 z M 443.20703 7 L 476.79297 7 C 478.5702 7 480 8.4317586 480 10.208984 L 480 28.792969 C 480 30.570198 478.5702 32 476.79297 32 L 443.20703 32 C 441.4298 32 440 30.570198 440 28.792969 L 440 10.208984 C 440 8.4317586 441.4298 7 443.20703 7 z M 50.265625 40 L 449.73438 40 C 469.27164 40 485 55.728357 485 75.265625 L 485 224.73438 C 485 244.27164 469.27148 260 449.73438 260 L 50.265625 260 C 30.728357 260 15 244.27163 15 224.73438 L 15 75.265625 C 15 55.728357 30.728357 40 50.265625 40 z M 23.207031 268 L 56.792969 268 C 58.570198 268 60 269.43176 60 271.20898 L 60 289.79297 C 60 291.5702 58.570198 293 56.792969 293 L 23.207031 293 C 21.429802 293 20 291.5702 20 289.79297 L 20 271.20898 C 20 269.43176 21.429802 268 23.207031 268 z M 83.207031 268 L 116.79297 268 C 118.5702 268 120 269.43176 120 271.20898 L 120 289.79297 C 120 291.5702 118.5702 293 116.79297 293 L 83.207031 293 C 81.429802 293 80 291.5702 80 289.79297 L 80 271.20898 C 80 269.43176 81.429802 268 83.207031 268 z M 143.20703 268 L 176.79297 268 C 178.5702 268 180 269.43176 180 271.20898 L 180 289.79297 C 180 291.5702 178.5702 293 176.79297 293 L 143.20703 293 C 141.4298 293 140 291.5702 140 289.79297 L 140 271.20898 C 140 269.43176 141.4298 268 143.20703 268 z M 203.20703 268 L 236.79297 268 C 238.5702 268 240 269.43176 240 271.20898 L 240 289.79297 C 240 291.5702 238.5702 293 236.79297 293 L 203.20703 293 C 201.4298 293 200 291.5702 200 289.79297 L 200 271.20898 C 200 269.43176 201.4298 268 203.20703 268 z M 263.20703 268 L 296.79297 268 C 298.5702 268 300 269.43176 300 271.20898 L 300 289.79297 C 300 291.5702 298.5702 293 296.79297 293 L 263.20703 293 C 261.4298 293 260 291.5702 260 289.79297 L 260 271.20898 C 260 269.43176 261.4298 268 263.20703 268 z M 323.20703 268 L 356.79297 268 C 358.5702 268 360 269.43176 360 271.20898 L 360 289.79297 C 360 291.5702 358.5702 293 356.79297 293 L 323.20703 293 C 321.4298 293 320 291.5702 320 289.79297 L 320 271.20898 C 320 269.43176 321.4298 268 323.20703 268 z M 383.20703 268 L 416.79297 268 C 418.5702 268 420 269.43176 420 271.20898 L 420 289.79297 C 420 291.5702 418.5702 293 416.79297 293 L 383.20703 293 C 381.4298 293 380 291.5702 380 289.79297 L 380 271.20898 C 380 269.43176 381.4298 268 383.20703 268 z M 443.20703 268 L 476.79297 268 C 478.5702 268 480 269.43176 480 271.20898 L 480 289.79297 C 480 291.5702 478.5702 293 476.79297 293 L 443.20703 293 C 441.4298 293 440 291.5702 440 289.79297 L 440 271.20898 C 440 269.43176 441.4298 268 443.20703 268 z "
       transform="translate(0,752.36216)"
       id="rect4193" />
  </g>
</svg>
