<?xml version="1.0" encoding="UTF-8" standalone="no"?>
<!-- Created with Inkscape (http://www.inkscape.org/) -->

<svg
   xmlns:dc="http://purl.org/dc/elements/1.1/"
   xmlns:cc="http://creativecommons.org/ns#"
   xmlns:rdf="http://www.w3.org/1999/02/22-rdf-syntax-ns#"
   xmlns:svg="http://www.w3.org/2000/svg"
   xmlns="http://www.w3.org/2000/svg"
   xmlns:sodipodi="http://sodipodi.sourceforge.net/DTD/sodipodi-0.dtd"
   xmlns:inkscape="http://www.inkscape.org/namespaces/inkscape"
   width="200"
   height="100"
   viewBox="0 0 200 100"
   id="svg4185"
   version="1.1"
   inkscape:version="0.91 r13725"
   sodipodi:docname="sd576i.svg">
  <defs
     id="defs4187" />
  <sodipodi:namedview
     id="base"
     pagecolor="#ffffff"
     bordercolor="#666666"
     borderopacity="1.0"
     inkscape:pageopacity="0.0"
     inkscape:pageshadow="2"
     inkscape:zoom="4.1873525"
     inkscape:cx="45.595463"
     inkscape:cy="29.479332"
     inkscape:document-units="px"
     inkscape:current-layer="layer2"
     showgrid="false"
     units="px"
     inkscape:window-width="1920"
     inkscape:window-height="1017"
     inkscape:window-x="-8"
     inkscape:window-y="-8"
     inkscape:window-maximized="1" />
  <metadata
     id="metadata4190">
    <rdf:RDF>
      <cc:Work
         rdf:about="">
        <dc:format>image/svg+xml</dc:format>
        <dc:type
           rdf:resource="http://purl.org/dc/dcmitype/StillImage" />
        <dc:title />
      </cc:Work>
    </rdf:RDF>
  </metadata>
  <g
     inkscape:groupmode="layer"
     id="layer2"
     inkscape:label="Ebene 2">
    <path
       style="opacity:1;fill:#{sdcol(clrIcon)};fill-opacity:{sdopac(clrIcon)};stroke:none;stroke-width:7.46099997;stroke-linejoin:miter;stroke-miterlimit:4;stroke-dasharray:none;stroke-opacity:1"
       d="M 0 0 L 0 100 L 200 100 L 200 0 L 0 0 z M 3 3 L 83 3 L 83 97 L 3 97 L 3 3 z M 180.47852 32.478516 C 181.1377 32.478516 181.69434 32.706055 182.14844 33.160156 C 182.61719 33.599609 182.85156 34.15625 182.85156 34.830078 C 182.85156 35.474609 182.61719 36.024414 182.14844 36.478516 C 181.69434 36.932617 181.1377 37.158203 180.47852 37.158203 C 179.83398 37.158203 179.28613 36.939453 178.83203 36.5 C 178.37793 36.060547 178.15039 35.503906 178.15039 34.830078 C 178.15039 34.15625 178.37793 33.599609 178.83203 33.160156 C 179.28613 32.706055 179.83398 32.478516 180.47852 32.478516 z M 166.02148 33.335938 C 168.18945 33.335938 169.93164 33.635742 171.25 34.236328 L 171.25 37.642578 C 169.62402 36.807617 167.91113 36.390625 166.10938 36.390625 C 164.70312 36.390625 163.43652 36.704102 162.30859 37.333984 C 161.18066 37.963867 160.21387 38.858398 159.4082 40.015625 C 158.60254 41.158203 157.97852 42.541992 157.53906 44.167969 C 157.11426 45.793945 156.90234 47.603516 156.90234 49.595703 L 156.99023 49.595703 C 158.44043 46.973633 160.83594 45.662109 164.17578 45.662109 C 165.55273 45.662109 166.79004 45.896484 167.88867 46.365234 C 169.00195 46.833984 169.94629 47.500977 170.72266 48.365234 C 171.51367 49.214844 172.12207 50.233398 172.54688 51.419922 C 172.97168 52.606445 173.18359 53.924805 173.18359 55.375 C 173.18359 56.913086 172.93555 58.326172 172.4375 59.615234 C 171.93945 60.904297 171.25 62.017578 170.37109 62.955078 C 169.49219 63.892578 168.44629 64.625 167.23047 65.152344 C 166.01465 65.665039 164.69629 65.921875 163.27539 65.921875 C 161.69336 65.921875 160.27148 65.59082 159.01172 64.931641 C 157.7666 64.272461 156.70508 63.328125 155.82617 62.097656 C 154.96191 60.852539 154.30176 59.335938 153.84766 57.548828 C 153.39355 55.761719 153.16797 53.749023 153.16797 51.507812 C 153.16797 48.768555 153.46777 46.285156 154.06836 44.058594 C 154.68359 41.817383 155.54688 39.90625 156.66016 38.324219 C 157.78809 36.727539 159.14453 35.49707 160.72656 34.632812 C 162.30859 33.768555 164.07324 33.335938 166.02148 33.335938 z M 107.48633 33.863281 L 122.05469 33.863281 L 122.05469 37.115234 L 110.60547 37.115234 L 109.96875 46.365234 C 110.4375 46.335938 110.93555 46.313477 111.46289 46.298828 C 111.99023 46.269531 112.45898 46.255859 112.86914 46.255859 C 114.53906 46.255859 116.0332 46.474609 117.35156 46.914062 C 118.66992 47.353516 119.7832 47.984375 120.69141 48.804688 C 121.61426 49.610352 122.31055 50.606445 122.7793 51.792969 C 123.2627 52.964844 123.50391 54.283203 123.50391 55.748047 C 123.50391 57.286133 123.24023 58.676758 122.71289 59.921875 C 122.18555 61.166992 121.43066 62.237305 120.44922 63.130859 C 119.48242 64.024414 118.31055 64.711914 116.93359 65.195312 C 115.55664 65.678711 114.02637 65.921875 112.3418 65.921875 C 109.41211 65.921875 107.2373 65.482422 105.81641 64.603516 L 105.81641 60.779297 C 107.95508 62.15625 110.14551 62.845703 112.38672 62.845703 C 113.5293 62.845703 114.55469 62.676758 115.46289 62.339844 C 116.38574 62.00293 117.16797 61.53418 117.8125 60.933594 C 118.45703 60.333008 118.94824 59.607422 119.28516 58.757812 C 119.63672 57.908203 119.8125 56.977539 119.8125 55.966797 C 119.8125 53.916016 119.125 52.313477 117.74805 51.15625 C 116.37109 49.984375 114.37012 49.398438 111.74805 49.398438 C 111.32324 49.398438 110.87695 49.405273 110.4082 49.419922 C 109.93945 49.43457 109.4707 49.457031 109.00195 49.486328 C 108.5332 49.500977 108.07129 49.521484 107.61719 49.550781 C 107.17773 49.580078 106.77637 49.618164 106.41016 49.662109 L 107.48633 33.863281 z M 128.62305 33.863281 L 148.66211 33.863281 L 148.66211 35.951172 C 148.17871 36.786133 147.59277 37.825195 146.9043 39.070312 C 146.23047 40.31543 145.51367 41.714844 144.75195 43.267578 C 143.99023 44.820312 143.21289 46.490234 142.42188 48.277344 C 141.63086 50.064453 140.8916 51.910156 140.20312 53.814453 C 139.51465 55.71875 138.90625 57.652344 138.37891 59.615234 C 137.86621 61.563477 137.49414 63.481445 137.25977 65.371094 L 133.39258 65.371094 C 133.65625 63.496094 134.05762 61.584961 134.59961 59.636719 C 135.15625 57.673828 135.78027 55.755859 136.46875 53.880859 C 137.17188 51.991211 137.91113 50.174805 138.6875 48.431641 C 139.46387 46.688477 140.21875 45.083984 140.95117 43.619141 C 141.68359 42.154297 142.34863 40.865234 142.94922 39.751953 C 143.56445 38.624023 144.05566 37.745117 144.42188 37.115234 L 128.62305 37.115234 L 128.62305 33.863281 z M 178.63281 42.871094 L 182.23633 42.871094 L 182.23633 65.371094 L 178.63281 65.371094 L 178.63281 42.871094 z M 163.36328 48.716797 C 162.46973 48.716797 161.64062 48.885742 160.87891 49.222656 C 160.11719 49.55957 159.45898 50.019531 158.90234 50.605469 C 158.3457 51.176758 157.90625 51.850586 157.58398 52.626953 C 157.27637 53.388672 157.12305 54.202148 157.12305 55.066406 C 157.12305 56.150391 157.27637 57.168945 157.58398 58.121094 C 157.8916 59.058594 158.32422 59.878906 158.88086 60.582031 C 159.4375 61.285156 160.0957 61.841797 160.85742 62.251953 C 161.63379 62.647461 162.49023 62.845703 163.42773 62.845703 C 164.33594 62.845703 165.16504 62.676758 165.91211 62.339844 C 166.65918 61.988281 167.29492 61.503906 167.82227 60.888672 C 168.34961 60.273438 168.75977 59.541016 169.05273 58.691406 C 169.3457 57.827148 169.49219 56.875977 169.49219 55.835938 C 169.49219 54.737305 169.35449 53.748047 169.07617 52.869141 C 168.79785 51.990234 168.39453 51.244141 167.86719 50.628906 C 167.35449 50.013672 166.7168 49.544922 165.95508 49.222656 C 165.19336 48.885742 164.33008 48.716797 163.36328 48.716797 z "
       id="rect4146" />
  </g>
  <g
     inkscape:groupmode="layer"
     id="layer3"
     inkscape:label="Ebene 3">
    <g
       style="font-style:normal;font-weight:normal;font-size:40px;line-height:125%;font-family:sans-serif;letter-spacing:0px;word-spacing:0px;fill:#{sdcol(clrIcon)};fill-opacity:{sdopac(clrIcon)};stroke:none;stroke-width:1px;stroke-linecap:butt;stroke-linejoin:miter;stroke-opacity:1"
       id="text4152"
       transform="matrix(1.1427311,0,0,1.1427311,-4.9922118,-10.062422)">
      <path
         d="m 31.825305,44.564919 q -0.605469,-0.371094 -1.347656,-0.722657 -0.722657,-0.371093 -1.5625,-0.644531 -0.820313,-0.273437 -1.738282,-0.449219 -0.917968,-0.175781 -1.914062,-0.175781 -1.113281,0 -1.875,0.3125 -0.761719,0.292969 -1.210938,0.742188 -0.449218,0.449218 -0.644531,0.976562 -0.195312,0.507813 -0.195312,0.957031 0,0.644532 0.195312,1.191407 0.214844,0.527343 0.644531,1.035156 0.449219,0.488281 1.152344,1.015625 0.722656,0.507812 1.738281,1.132812 1.328125,0.820313 2.34375,1.660157 1.035157,0.820312 1.757813,1.777343 0.722656,0.9375 1.09375,2.050782 0.371094,1.113281 0.371094,2.5 0,0.800781 -0.195313,1.757812 -0.175781,0.957031 -0.625,1.933594 -0.449219,0.957031 -1.25,1.855469 -0.78125,0.898437 -1.972656,1.582031 -1.191406,0.683594 -2.871094,1.09375 -1.660156,0.429687 -3.886719,0.429687 -1.25,0 -2.441406,-0.175781 -1.171875,-0.15625 -2.246094,-0.429687 Q 14.09093,65.6782 13.172961,65.326637 12.254992,64.975075 11.551867,64.603981 l 1.074219,-5.546875 q 0.722656,0.527344 1.5625,0.996094 0.859375,0.46875 1.777344,0.820312 0.9375,0.351563 1.933594,0.546875 0.996093,0.195313 2.011718,0.195313 1.113282,0 1.894532,-0.234375 0.78125,-0.253906 1.269531,-0.683594 0.488281,-0.429687 0.703125,-0.996094 0.214844,-0.566406 0.214844,-1.210937 0,-0.644531 -0.214844,-1.152344 -0.195313,-0.527344 -0.664063,-0.996094 -0.46875,-0.488281 -1.25,-0.996093 -0.761718,-0.527344 -1.875,-1.171875 -1.191406,-0.664063 -2.167968,-1.425782 -0.976563,-0.78125 -1.679688,-1.71875 -0.703125,-0.957031 -1.09375,-2.109375 -0.390625,-1.171875 -0.390625,-2.597656 0,-1.621094 0.605469,-3.183594 0.605469,-1.5625 1.894531,-2.792968 1.289063,-1.230469 3.28125,-1.972657 2.011719,-0.761718 4.785156,-0.761718 1.152344,0 2.226563,0.136718 1.074219,0.117188 2.050781,0.332032 0.976563,0.214843 1.835938,0.488281 0.859375,0.273437 1.5625,0.566406 l -1.074219,5.429688 z"
         style="font-style:italic;font-variant:normal;font-weight:bold;font-stretch:normal;font-family:'Segoe UI';-inkscape-font-specification:'Segoe UI Bold Italic'"
         id="path4157"
         inkscape:connector-curvature="0" />
      <path
         d="m 61.74718,49.408669 q 0,2.207031 -0.449219,4.316406 -0.449219,2.089844 -1.367187,3.945312 -0.898438,1.855469 -2.285157,3.398438 -1.386718,1.542969 -3.28125,2.65625 -1.875,1.113281 -4.277343,1.738281 -2.402344,0.625 -5.332032,0.625 l -11.328125,0 5.957032,-28.007812 9.84375,0 q 3.085937,0 5.410156,0.839843 2.34375,0.839844 3.925781,2.34375 1.582031,1.484375 2.382813,3.574219 0.800781,2.070313 0.800781,4.570313 z m -6.679688,0.488281 q 0,-1.5625 -0.449218,-2.792969 -0.429688,-1.25 -1.347657,-2.109375 -0.898437,-0.859375 -2.285156,-1.308594 -1.386719,-0.46875 -3.28125,-0.46875 l -3.066406,0 -3.769531,17.753907 3.847656,0 q 2.382812,0 4.296875,-0.78125 1.914062,-0.800782 3.261719,-2.246094 1.347656,-1.464844 2.070312,-3.496094 0.722656,-2.050781 0.722656,-4.550781 z"
         style="font-style:italic;font-variant:normal;font-weight:bold;font-stretch:normal;font-family:'Segoe UI';-inkscape-font-specification:'Segoe UI Bold Italic'"
         id="path4159"
         inkscape:connector-curvature="0" />
    </g>
  </g>
</svg>
